<svg width="24" height="25" viewBox="0 0 24 25" fill="none" xmlns="http://www.w3.org/2000/svg">
<path d="M20.71 20.2197L17.31 16.8297C18.407 15.4321 19.0022 13.7063 19 11.9297C19 10.3474 18.5308 8.80072 17.6518 7.48513C16.7727 6.16954 15.5233 5.14416 14.0615 4.53865C12.5997 3.93315 10.9911 3.77473 9.43928 4.08341C7.88743 4.39209 6.46197 5.15402 5.34315 6.27284C4.22433 7.39166 3.4624 8.81712 3.15372 10.369C2.84504 11.9208 3.00347 13.5293 3.60897 14.9912C4.21447 16.453 5.23985 17.7024 6.55544 18.5814C7.87103 19.4605 9.41775 19.9297 11 19.9297C12.7767 19.9319 14.5025 19.3367 15.9 18.2397L19.29 21.6397C19.383 21.7334 19.4936 21.8078 19.6154 21.8586C19.7373 21.9093 19.868 21.9355 20 21.9355C20.132 21.9355 20.2627 21.9093 20.3846 21.8586C20.5064 21.8078 20.617 21.7334 20.71 21.6397C20.8037 21.5467 20.8781 21.4361 20.9289 21.3143C20.9797 21.1924 21.0058 21.0617 21.0058 20.9297C21.0058 20.7977 20.9797 20.667 20.9289 20.5451C20.8781 20.4233 20.8037 20.3127 20.71 20.2197ZM5 11.9297C5 10.743 5.3519 9.58296 6.01119 8.59627C6.67047 7.60957 7.60755 6.84054 8.7039 6.38641C9.80026 5.93229 11.0067 5.81347 12.1705 6.04498C13.3344 6.27649 14.4035 6.84794 15.2426 7.68705C16.0818 8.52617 16.6532 9.59526 16.8847 10.7591C17.1162 11.923 16.9974 13.1294 16.5433 14.2258C16.0892 15.3221 15.3201 16.2592 14.3334 16.9185C13.3467 17.5778 12.1867 17.9297 11 17.9297C9.4087 17.9297 7.88258 17.2975 6.75736 16.1723C5.63214 15.0471 5 13.521 5 11.9297Z" fill="#2D2D2D"/>
</svg>
