<svg width="40" height="40" viewBox="0 0 40 40" fill="none" xmlns="http://www.w3.org/2000/svg">
<path d="M33.4167 18.3335H6.58333C5.70888 18.3335 5 19.0424 5 19.9168V20.0835C5 20.9579 5.70888 21.6668 6.58333 21.6668H33.4167C34.2911 21.6668 35 20.9579 35 20.0835V19.9168C35 19.0424 34.2911 18.3335 33.4167 18.3335Z" fill="#D9D9D9"/>
<path d="M33.4167 26.6665H6.58333C5.70888 26.6665 5 27.3754 5 28.2498V28.4165C5 29.291 5.70888 29.9998 6.58333 29.9998H33.4167C34.2911 29.9998 35 29.291 35 28.4165V28.2498C35 27.3754 34.2911 26.6665 33.4167 26.6665Z" fill="#D9D9D9"/>
<path d="M33.4167 10H6.58333C5.70888 10 5 10.7089 5 11.5833V11.75C5 12.6245 5.70888 13.3333 6.58333 13.3333H33.4167C34.2911 13.3333 35 12.6245 35 11.75V11.5833C35 10.7089 34.2911 10 33.4167 10Z" fill="#D9D9D9"/>
</svg>
